<svg width="16" height="17" viewBox="0 0 16 17" fill="none" xmlns="http://www.w3.org/2000/svg">
<path d="M4.66667 4.80009C4.24561 4.80009 3.91813 4.91705 3.68421 5.15097C3.45029 5.38488 3.33333 5.71237 3.33333 6.13342H12.6667C12.6667 5.71237 12.5497 5.38488 12.3158 5.15097C12.0819 4.91705 11.7544 4.80009 11.3333 4.80009H4.66667ZM11.3333 3.46676C11.8245 3.46676 12.2729 3.58372 12.6783 3.81763C13.0916 4.05155 13.4152 4.37514 13.6491 4.7884C13.8831 5.19385 14 5.6422 14 6.13342V7.46676H2V6.13342C2 5.6422 2.11696 5.19385 2.35088 4.7884C2.59259 4.37514 2.91618 4.05155 3.32164 3.81763C3.73489 3.58372 4.18323 3.46676 4.66667 3.46676H11.3333ZM3.33333 12.8001C3.33333 13.2212 3.45029 13.5486 3.68421 13.7826C3.91813 14.0165 4.24561 14.1334 4.66667 14.1334H11.3333C11.7544 14.1334 12.0819 14.0165 12.3158 13.7826C12.5497 13.5486 12.6667 13.2212 12.6667 12.8001V7.46676H3.33333V12.8001ZM14 6.13342V12.8001C14 13.2835 13.8831 13.7319 13.6491 14.1451C13.4152 14.5506 13.0916 14.8742 12.6783 15.1159C12.2729 15.3498 11.8245 15.4668 11.3333 15.4668H4.66667C4.18323 15.4668 3.73489 15.3498 3.32164 15.1159C2.91618 14.8742 2.59259 14.5506 2.35088 14.1451C2.11696 13.7319 2 13.2835 2 12.8001V6.13342H14ZM4 2.80009C4 2.61296 4.06628 2.45701 4.19883 2.33225C4.33139 2.1997 4.48733 2.13342 4.66667 2.13342C4.8538 2.13342 5.00975 2.1997 5.1345 2.33225C5.26706 2.45701 5.33333 2.61296 5.33333 2.80009V4.13342C5.33333 4.31276 5.26706 4.4687 5.1345 4.60126C5.00975 4.73381 4.8538 4.80009 4.66667 4.80009C4.48733 4.80009 4.33139 4.73381 4.19883 4.60126C4.06628 4.4687 4 4.31276 4 4.13342V2.80009ZM12 4.13342C12 4.31276 11.9337 4.4687 11.8012 4.60126C11.6764 4.73381 11.5205 4.80009 11.3333 4.80009C11.154 4.80009 10.9981 4.73381 10.8655 4.60126C10.7329 4.4687 10.6667 4.31276 10.6667 4.13342V2.80009C10.6667 2.61296 10.7329 2.45701 10.8655 2.33225C10.9981 2.1997 11.154 2.13342 11.3333 2.13342C11.5205 2.13342 11.6764 2.1997 11.8012 2.33225C11.9337 2.45701 12 2.61296 12 2.80009V4.13342ZM5.33333 11.2446C5.57505 11.2446 5.78167 11.3342 5.95321 11.5136C6.13255 11.6851 6.22222 11.8917 6.22222 12.1334C6.22222 12.3752 6.13255 12.5857 5.95321 12.765C5.78167 12.9366 5.57505 13.0223 5.33333 13.0223C5.09162 13.0223 4.88109 12.9366 4.70175 12.765C4.53021 12.5857 4.44445 12.3752 4.44445 12.1334C4.44445 11.8917 4.53021 11.6851 4.70175 11.5136C4.88109 11.3342 5.09162 11.2446 5.33333 11.2446ZM8 11.2446C8.24173 11.2446 8.44833 11.3342 8.61987 11.5136C8.7992 11.6851 8.88887 11.8917 8.88887 12.1334C8.88887 12.3752 8.7992 12.5857 8.61987 12.765C8.44833 12.9366 8.24173 13.0223 8 13.0223C7.75827 13.0223 7.54773 12.9366 7.3684 12.765C7.19687 12.5857 7.11113 12.3752 7.11113 12.1334C7.11113 11.8917 7.19687 11.6851 7.3684 11.5136C7.54773 11.3342 7.75827 11.2446 8 11.2446ZM10.6667 11.2446C10.9084 11.2446 11.115 11.3342 11.2865 11.5136C11.4659 11.6851 11.5555 11.8917 11.5555 12.1334C11.5555 12.3752 11.4659 12.5857 11.2865 12.765C11.115 12.9366 10.9084 13.0223 10.6667 13.0223C10.4249 13.0223 10.2144 12.9366 10.0351 12.765C9.86353 12.5857 9.7778 12.3752 9.7778 12.1334C9.7778 11.8917 9.86353 11.6851 10.0351 11.5136C10.2144 11.3342 10.4249 11.2446 10.6667 11.2446ZM5.33333 8.57789C5.57505 8.57789 5.78167 8.66756 5.95321 8.84689C6.13255 9.01842 6.22222 9.22502 6.22222 9.46676C6.22222 9.70849 6.13255 9.91902 5.95321 10.0984C5.78167 10.2699 5.57505 10.3556 5.33333 10.3556C5.09162 10.3556 4.88109 10.2699 4.70175 10.0984C4.53021 9.91902 4.44445 9.70849 4.44445 9.46676C4.44445 9.22502 4.53021 9.01842 4.70175 8.84689C4.88109 8.66756 5.09162 8.57789 5.33333 8.57789ZM8 8.57789C8.24173 8.57789 8.44833 8.66756 8.61987 8.84689C8.7992 9.01842 8.88887 9.22502 8.88887 9.46676C8.88887 9.70849 8.7992 9.91902 8.61987 10.0984C8.44833 10.2699 8.24173 10.3556 8 10.3556C7.75827 10.3556 7.54773 10.2699 7.3684 10.0984C7.19687 9.91902 7.11113 9.70849 7.11113 9.46676C7.11113 9.22502 7.19687 9.01842 7.3684 8.84689C7.54773 8.66756 7.75827 8.57789 8 8.57789ZM10.6667 8.57789C10.9084 8.57789 11.115 8.66756 11.2865 8.84689C11.4659 9.01842 11.5555 9.22502 11.5555 9.46676C11.5555 9.70849 11.4659 9.91902 11.2865 10.0984C11.115 10.2699 10.9084 10.3556 10.6667 10.3556C10.4249 10.3556 10.2144 10.2699 10.0351 10.0984C9.86353 9.91902 9.7778 9.70849 9.7778 9.46676C9.7778 9.22502 9.86353 9.01842 10.0351 8.84689C10.2144 8.66756 10.4249 8.57789 10.6667 8.57789Z" fill="#2C313A"/>
</svg>
