<svg width="16" height="17" viewBox="0 0 16 17" fill="none" xmlns="http://www.w3.org/2000/svg">
<path fill-rule="evenodd" clip-rule="evenodd" d="M1.33325 8.80009C1.33325 5.12398 4.32381 2.13342 7.99992 2.13342C11.6761 2.13342 14.6666 5.12398 14.6666 8.80009C14.6666 12.4762 11.6761 15.4668 7.99992 15.4668C4.32381 15.4668 1.33325 12.4762 1.33325 8.80009ZM7.99992 3.37526C5.00871 3.37526 2.57509 5.80888 2.57509 8.80009C2.57509 11.7913 5.00871 14.225 7.99992 14.225C10.9911 14.225 13.4248 11.7913 13.4248 8.80009C13.4248 5.80888 10.9911 3.37526 7.99992 3.37526ZM7.17405 6.03034C7.17405 5.69911 7.44279 5.43034 7.77405 5.43034C8.10599 5.43034 8.37405 5.6992 8.37405 6.03034V8.92156L10.5953 10.2458C10.8789 10.416 10.9729 10.784 10.8033 11.0688C10.6906 11.2566 10.4913 11.3617 10.2874 11.3617C10.1825 11.3617 10.0771 11.3344 9.98079 11.2779L9.98012 11.2776L7.46679 9.77822C7.28639 9.66962 7.17405 9.47376 7.17405 9.26236V6.03034Z" fill="#2C313A"/>
</svg>
