<svg width="17" height="17" viewBox="0 0 17 17" fill="none" xmlns="http://www.w3.org/2000/svg">
<path d="M7.8552 8.46096C9.3732 8.46096 10.6042 7.27396 10.6042 5.80996C10.6042 4.34496 9.3742 3.15796 7.8552 3.15796C6.3372 3.15796 5.1062 4.34496 5.1062 5.80996C5.1062 7.27396 6.3362 8.46096 7.8552 8.46096Z" fill="#B14EC6"/>
<path d="M5.81301 9.24307C4.19001 9.51707 2.99601 11.0001 2.99601 12.7411C2.99601 12.8951 3.02001 13.0441 3.06501 13.1831C2.88301 13.1411 2.81101 13.0771 2.78001 13.0401C2.71001 12.9581 2.64301 12.7801 2.64301 12.3611V7.39007C2.63801 7.23507 2.68301 6.99207 2.81601 6.80507C2.92501 6.65107 3.12501 6.48707 3.56601 6.48707C3.64892 6.49182 3.73193 6.47959 3.80995 6.45114C3.88796 6.42268 3.95935 6.37859 4.01973 6.32157C4.08011 6.26456 4.12821 6.19581 4.16109 6.11955C4.19396 6.04329 4.21092 5.96111 4.21092 5.87807C4.21092 5.79502 4.19396 5.71285 4.16109 5.63659C4.12821 5.56032 4.08011 5.49158 4.01973 5.43456C3.95935 5.37754 3.88796 5.33345 3.80995 5.305C3.73193 5.27654 3.64892 5.26431 3.56601 5.26907C2.74201 5.26907 2.16701 5.61507 1.82301 6.09907C1.55487 6.48628 1.4156 6.94817 1.42501 7.41907V12.3621C1.42501 12.8401 1.48601 13.3981 1.85001 13.8281C2.23301 14.2811 2.81801 14.4431 3.50601 14.4431H12.408C13.216 14.4431 13.827 14.1191 14.223 13.6331C14.603 13.1661 14.757 12.5881 14.757 12.0931V7.61807C14.757 6.84807 14.514 6.26207 14.113 5.86007C13.7686 5.51959 13.3156 5.31078 12.833 5.27007L12.807 5.26907H12.047C11.9641 5.26431 11.8811 5.27654 11.8031 5.305C11.7251 5.33345 11.6537 5.37754 11.5933 5.43456C11.5329 5.49158 11.4848 5.56032 11.4519 5.63659C11.4191 5.71285 11.4021 5.79502 11.4021 5.87807C11.4021 5.96111 11.4191 6.04329 11.4519 6.11955C11.4848 6.19581 11.5329 6.26456 11.5933 6.32157C11.6537 6.37859 11.7251 6.42268 11.8031 6.45114C11.8811 6.47959 11.9641 6.49182 12.047 6.48707H12.75C12.921 6.50707 13.108 6.57907 13.25 6.72107C13.388 6.85907 13.54 7.11707 13.54 7.61807V12.0941C13.54 12.3571 13.453 12.6491 13.279 12.8641C13.1506 13.0209 12.9748 13.1317 12.778 13.1801C12.822 13.0431 12.846 12.8951 12.846 12.7421C12.846 11.0021 11.652 9.51807 10.029 9.24407C9.98308 9.23666 9.93611 9.23878 9.89104 9.25031C9.84596 9.26184 9.80374 9.28252 9.76701 9.31107C8.59201 10.2131 7.34901 10.1921 6.07901 9.30607C6.00188 9.25136 5.90637 9.2291 5.81301 9.24407V9.24307Z" fill="#B14EC6"/>
</svg>
