<svg width="17" height="16" viewBox="0 0 17 16" fill="none" xmlns="http://www.w3.org/2000/svg">
<path d="M8.51339 1.94C6.30673 1.94 4.51339 3.73334 4.51339 5.94V7.86667C4.51339 8.27334 4.34006 8.89334 4.13339 9.24L3.36673 10.5133C2.89339 11.3 3.22006 12.1733 4.08673 12.4667C6.96006 13.4267 10.0601 13.4267 12.9334 12.4667C13.7401 12.2 14.0934 11.2467 13.6534 10.5133L12.8867 9.24C12.6867 8.89334 12.5134 8.27334 12.5134 7.86667V5.94C12.5134 3.74 10.7134 1.94 8.51339 1.94Z" stroke="#702DFF" stroke-width="1.5" stroke-miterlimit="10" stroke-linecap="round"/>
<path d="M9.74694 2.13333C9.54027 2.07333 9.32694 2.02667 9.10694 2C8.46694 1.92 7.85361 1.96667 7.28027 2.13333C7.47361 1.64 7.95361 1.29333 8.51361 1.29333C9.07361 1.29333 9.55361 1.64 9.74694 2.13333Z" stroke="#702DFF" stroke-width="1.5" stroke-miterlimit="10" stroke-linecap="round" stroke-linejoin="round"/>
<path d="M10.5137 12.7067C10.5137 13.8067 9.61367 14.7067 8.51367 14.7067C7.967 14.7067 7.46034 14.48 7.10034 14.12C6.74034 13.76 6.51367 13.2533 6.51367 12.7067" stroke="#702DFF" stroke-width="1.5" stroke-miterlimit="10"/>
</svg>
