<svg width="16" height="17" viewBox="0 0 16 17" fill="none" xmlns="http://www.w3.org/2000/svg">
<path d="M1.9054 4.41914C1.9054 3.99835 2.24651 3.65723 2.6673 3.65723H13.334C13.7548 3.65723 14.0959 3.99835 14.0959 4.41914V9.75247C14.0959 10.1733 13.7548 10.5144 13.334 10.5144H12.5721C12.1513 10.5144 11.8102 10.8555 11.8102 11.2763C11.8102 11.6971 12.1513 12.0382 12.5721 12.0382H13.334C14.5964 12.0382 15.6197 11.0148 15.6197 9.75247V4.41914C15.6197 3.15677 14.5964 2.13342 13.334 2.13342H2.6673C1.40494 2.13342 0.381592 3.15677 0.381592 4.41914V9.75247C0.381592 10.1733 0.722708 10.5144 1.1435 10.5144C1.56428 10.5144 1.9054 10.1733 1.9054 9.75247V4.41914Z" fill="#2C313A"/>
<path d="M7.23872 7.84764C7.23872 8.8996 6.38593 9.75239 5.33396 9.75239C4.28199 9.75239 3.4292 8.8996 3.4292 7.84764C3.4292 6.79566 4.28199 5.94287 5.33396 5.94287C6.38593 5.94287 7.23872 6.79566 7.23872 7.84764Z" fill="#2C313A"/>
<path d="M4.36696 10.703C4.18269 10.5523 3.9324 10.4802 3.68 10.5301C2.13304 10.8355 1.14355 12.4199 1.14355 14.0928C1.14355 14.9333 1.71542 15.8477 2.68024 15.8477H7.98782C8.95264 15.8477 9.5245 14.9333 9.5245 14.0928C9.5245 13.2284 9.26038 12.3878 8.7917 11.7349L9.65353 10.5333C9.89877 10.1913 9.82039 9.71535 9.47845 9.4701C9.13652 9.22487 8.66052 9.30325 8.41527 9.64519L7.62866 10.7419C7.42791 10.6465 7.21393 10.5747 6.98806 10.5301C6.72466 10.4781 6.46578 10.5611 6.28315 10.7256C5.93415 11.0399 5.63056 11.1465 5.36577 11.1449C5.09391 11.1432 4.76291 11.0268 4.36696 10.703Z" fill="#2C313A"/>
<path d="M12.2329 5.30907C12.5829 5.54249 12.6776 6.01553 12.4442 6.36564L10.9203 8.65136C10.6869 9.00147 10.2139 9.09609 9.86377 8.86267C9.51365 8.62926 9.41905 8.15621 9.65245 7.8061L11.1763 5.52038C11.4097 5.17027 11.8827 5.07566 12.2329 5.30907Z" fill="#2C313A"/>
</svg>
